<svg width="11" height="17" fill="none" xmlns="http://www.w3.org/2000/svg"><g clip-path="url(#clip0)"><path d="M9.511.003L7.311 0C4.837 0 3.24 1.553 3.24 3.957V5.78H1.027a.337.337 0 00-.346.328v2.643c0 .181.155.328.346.328H3.24v6.67c0 .18.155.327.346.327h2.887a.337.337 0 00.346-.328V9.08h2.587a.337.337 0 00.346-.327l.001-2.643a.32.32 0 00-.101-.232.356.356 0 00-.245-.096H6.82V4.234c0-.743.187-1.12 1.21-1.12h1.48a.337.337 0 00.345-.329V.331A.337.337 0 009.51.003z" fill="#797979"/></g><defs><clipPath id="clip0"><path fill="#fff" d="M0 0h11v16.105H0z"/></clipPath></defs></svg>