<svg width="36" height="35" fill="none" xmlns="http://www.w3.org/2000/svg"><g clip-path="url(#clip0)" fill="#D9D9D9"><path d="M35.73 10.803c-.087-1.807-.39-3.042-.832-4.122a8.295 8.295 0 00-2.067-3.008 8.847 8.847 0 00-3.174-1.96c-1.14-.419-2.442-.706-4.35-.788-1.91-.083-2.521-.102-7.388-.102-4.866 0-5.477.02-7.388.102-1.907.082-3.21.37-4.35.79a8.843 8.843 0 00-3.173 1.958A8.296 8.296 0 00.94 6.681C.498 7.76.195 8.996.108 10.803.021 12.614 0 13.193 0 17.805s.02 5.191.108 7.002c.087 1.808.39 3.042.833 4.123a8.294 8.294 0 002.067 3.007 8.843 8.843 0 003.174 1.96c1.14.42 2.442.706 4.35.789 1.91.082 2.521.102 7.387.102 4.867 0 5.477-.02 7.388-.102 1.908-.083 3.21-.37 4.35-.79 2.407-.882 4.31-2.685 5.24-4.966.444-1.08.746-2.315.834-4.123.087-1.811.107-2.39.107-7.002s-.02-5.19-.107-7.002zm-3.225 13.865c-.08 1.656-.372 2.555-.617 3.153-.603 1.482-1.838 2.652-3.4 3.223-.632.233-1.58.51-3.328.585-1.89.082-2.456.1-7.24.1-4.786 0-5.353-.018-7.242-.1-1.747-.075-2.696-.352-3.327-.585a5.592 5.592 0 01-2.06-1.27 5.243 5.243 0 01-1.341-1.953c-.245-.598-.537-1.497-.617-3.153-.086-1.79-.104-2.328-.104-6.862 0-4.535.018-5.072.104-6.863.08-1.656.372-2.555.617-3.154a5.247 5.247 0 011.34-1.952 5.587 5.587 0 012.061-1.27c.631-.233 1.58-.51 3.327-.586 1.89-.081 2.456-.099 7.241-.099s5.351.018 7.241.1c1.747.075 2.696.352 3.327.584a5.595 5.595 0 012.06 1.27 5.24 5.24 0 011.34 1.953c.246.599.538 1.498.618 3.154.086 1.79.104 2.328.104 6.862 0 4.535-.018 5.072-.104 6.863z"/><path d="M17.92 9.084c-5.083 0-9.202 3.905-9.202 8.721 0 4.817 4.12 8.72 9.201 8.72 5.082 0 9.202-3.903 9.202-8.72 0-4.816-4.12-8.72-9.202-8.72zm0 14.382c-3.3 0-5.974-2.535-5.974-5.661 0-3.126 2.675-5.66 5.973-5.66 3.3 0 5.973 2.534 5.973 5.66 0 3.127-2.674 5.661-5.973 5.661zM29.635 8.74c0 1.125-.962 2.038-2.15 2.038s-2.15-.913-2.15-2.038c0-1.126.962-2.038 2.15-2.038s2.15.912 2.15 2.038z"/></g><defs><clipPath id="clip0"><path fill="#fff" d="M0 .823h35.838v33.965H0z"/></clipPath></defs></svg>