<svg width="19" height="17" fill="none" xmlns="http://www.w3.org/2000/svg"><path d="M18.427 3.339a7.246 7.246 0 01-2.003.51c.754-.429 1.264-1.034 1.53-1.816a7.064 7.064 0 01-2.208.796c-.69-.694-1.536-1.04-2.541-1.04-.962 0-1.782.32-2.46.963-.68.643-1.018 1.42-1.018 2.33 0 .246.028.497.086.756a10.114 10.114 0 01-4-1.015A9.777 9.777 0 012.64 2.39a3.099 3.099 0 00-.473 1.663c0 .564.14 1.088.42 1.57.28.483.657.874 1.13 1.174a3.596 3.596 0 01-1.572-.419v.041c0 .796.264 1.494.792 2.097a3.46 3.46 0 001.997 1.137 3.792 3.792 0 01-.915.112c-.201 0-.42-.017-.657-.05.222.659.632 1.201 1.227 1.626a3.519 3.519 0 002.025.658c-1.264.939-2.703 1.408-4.318 1.408a8.19 8.19 0 01-.84-.04c1.615.985 3.395 1.478 5.34 1.478 1.236 0 2.395-.185 3.478-.556 1.085-.37 2.01-.867 2.779-1.49a10.151 10.151 0 001.986-2.146 9.35 9.35 0 001.244-2.535 8.908 8.908 0 00.398-3.076 7.087 7.087 0 001.745-1.703z" fill="#6F6F6F"/></svg>