<svg width="20" height="14" fill="none" xmlns="http://www.w3.org/2000/svg"><path d="M19.67 10.778a1.183 1.183 0 00-.064-.116c-.327-.558-.953-1.243-1.875-2.055l-.02-.019-.01-.01-.01-.008h-.01c-.418-.379-.683-.633-.794-.763-.204-.248-.25-.5-.138-.754.078-.192.373-.598.883-1.218.269-.329.481-.592.638-.79 1.133-1.427 1.624-2.338 1.473-2.735l-.058-.093c-.04-.055-.141-.106-.305-.153-.163-.047-.373-.054-.628-.023l-2.827.018a.387.387 0 00-.197.005l-.127.028-.05.023-.039.028a.428.428 0 00-.108.098.63.63 0 00-.098.163c-.307.75-.657 1.447-1.05 2.092a19.72 19.72 0 01-.668 1 4.89 4.89 0 01-.51.623c-.138.133-.262.24-.373.32-.112.082-.197.116-.256.103a7.603 7.603 0 01-.167-.037.632.632 0 01-.22-.228.978.978 0 01-.113-.363 3.773 3.773 0 01-.035-.376 7.37 7.37 0 01.005-.447c.007-.192.01-.322.01-.39 0-.236.005-.492.015-.768l.024-.655c.007-.162.01-.332.01-.512s-.011-.32-.034-.423a1.393 1.393 0 00-.103-.298.51.51 0 00-.201-.223 1.172 1.172 0 00-.33-.126c-.346-.074-.788-.114-1.325-.12-1.217-.013-2 .062-2.346.223a1.314 1.314 0 00-.373.279c-.118.136-.134.21-.05.223.394.056.672.189.835.4l.06.112c.045.08.09.223.137.427a4.1 4.1 0 01.088.68c.033.452.033.84 0 1.162a13.17 13.17 0 01-.093.753 1.45 1.45 0 01-.133.437c-.059.112-.098.18-.118.205a.165.165 0 01-.049.046.772.772 0 01-.265.047c-.091 0-.203-.044-.334-.13a2.313 2.313 0 01-.407-.358 4.8 4.8 0 01-.476-.638 10.78 10.78 0 01-.55-.967l-.157-.27a22.77 22.77 0 01-.402-.758c-.17-.331-.321-.652-.452-.962a.618.618 0 00-.236-.298l-.049-.028a.686.686 0 00-.157-.079 1.088 1.088 0 00-.226-.06l-2.69.018c-.274 0-.46.06-.56.177l-.038.056a.287.287 0 00-.03.149c0 .068.02.152.059.25.393.875.82 1.718 1.281 2.53.461.813.862 1.467 1.203 1.963.34.496.687.964 1.04 1.404.354.44.588.723.702.847.115.124.205.217.27.279l.246.223c.157.149.387.327.692.535.304.207.641.412 1.011.614.37.2.8.365 1.291.492.49.128.969.179 1.433.154h1.13c.228-.019.402-.087.52-.205l.039-.046a.594.594 0 00.073-.172.896.896 0 00.035-.256 2.906 2.906 0 01.063-.72c.05-.214.105-.376.167-.484a1.193 1.193 0 01.379-.41.664.664 0 01.078-.032c.157-.05.342-.002.555.144.213.146.412.326.599.54.186.214.41.454.672.72.262.267.491.465.687.596l.197.111c.13.075.3.143.51.205.21.062.393.077.55.046l2.513-.037c.249 0 .442-.039.58-.116.137-.078.218-.163.245-.256a.683.683 0 00.005-.316 1.121 1.121 0 00-.07-.247z" fill="#6F6F6F"/></svg>