<svg width="18" height="15" fill="none" xmlns="http://www.w3.org/2000/svg"><path d="M17.215 2.654c-.647-.729-1.84-1.026-4.12-1.026H4.817c-2.332 0-3.546.317-4.19 1.092C0 3.476 0 4.59 0 6.13v2.94c0 2.986.745 4.502 4.818 4.502h8.276c1.977 0 3.073-.262 3.782-.905.727-.659 1.037-1.735 1.037-3.597V6.13c0-1.626-.049-2.746-.698-3.477zM11.5 8.005l-3.758 1.86a.603.603 0 01-.567-.016.542.542 0 01-.279-.468V5.67c0-.19.106-.368.278-.467a.606.606 0 01.567-.018l3.758 1.848a.545.545 0 01.311.485.544.544 0 01-.31.486z" fill="#6F6F6F"/></svg>