<?xml version="1.0"?>
<svg xmlns="http://www.w3.org/2000/svg" height="512px" viewBox="0 0 512 512" width="512px"><g><g id="Out_line" data-name="Out line"><path d="m352 400h-8v-80h-16v80h-272.00049l-.00928-159.99951.00977-.00049v-16a16.01833 16.01833 0 0 0 -16 16v160h-8v-160a24.0275 24.0275 0 0 1 24-24v-16a40.04552 40.04552 0 0 0 -40 40v168a40.04552 40.04552 0 0 0 40 40h104v8a24.0275 24.0275 0 0 1 -24 24 8 8 0 0 0 0 16h112a8 8 0 0 0 0-16 24.0275 24.0275 0 0 1 -24-24v-8h104a40.04552 40.04552 0 0 0 40-40v-88h-16zm-135.98145 80h-48.0371a39.79847 39.79847 0 0 0 8.01855-24v-8h32v8a39.79847 39.79847 0 0 0 8.01855 24zm111.98145-48h-272a24.03824 24.03824 0 0 1 -22.62378-16h317.24778a24.039 24.039 0 0 1 -22.624 16z" data-original="#000000" class="active-path" data-old_color="#000000" fill="#18CFAB"/><path d="m472 16h-208a24.02718 24.02718 0 0 0 -24 24v176a24.02718 24.02718 0 0 0 24 24h208a24.02718 24.02718 0 0 0 24-24v-176a24.02718 24.02718 0 0 0 -24-24zm8 200a8.00917 8.00917 0 0 1 -8 8h-208a8.00917 8.00917 0 0 1 -8-8v-176a8.00917 8.00917 0 0 1 8-8h208a8.00917 8.00917 0 0 1 8 8z" data-original="#000000" class="active-path" data-old_color="#000000" fill="#18CFAB"/><path d="m272 64h192v16h-192z" data-original="#000000" class="active-path" data-old_color="#000000" fill="#18CFAB"/><circle cx="280" cy="48" r="8" data-original="#000000" class="active-path" data-old_color="#000000" fill="#18CFAB"/><circle cx="304" cy="48" r="8" data-original="#000000" class="active-path" data-old_color="#000000" fill="#18CFAB"/><circle cx="328" cy="48" r="8" data-original="#000000" class="active-path" data-old_color="#000000" fill="#18CFAB"/><path d="m352 96h-72a8.00008 8.00008 0 0 0 -8 8v72a8.00008 8.00008 0 0 0 8 8h72a8.00008 8.00008 0 0 0 8-8v-72a8.00008 8.00008 0 0 0 -8-8zm-8 72h-56v-56h56z" data-original="#000000" class="active-path" data-old_color="#000000" fill="#18CFAB"/><path d="m456 96h-72a8.00008 8.00008 0 0 0 -8 8v72a8.00008 8.00008 0 0 0 8 8h72a8.00008 8.00008 0 0 0 8-8v-72a8.00008 8.00008 0 0 0 -8-8zm-8 72h-56v-56h56z" data-original="#000000" class="active-path" data-old_color="#000000" fill="#18CFAB"/><path d="m288 192h32v16h-32z" data-original="#000000" class="active-path" data-old_color="#000000" fill="#18CFAB"/><path d="m328 192h16v16h-16z" data-original="#000000" class="active-path" data-old_color="#000000" fill="#18CFAB"/><path d="m392 192h32v16h-32z" data-original="#000000" class="active-path" data-old_color="#000000" fill="#18CFAB"/><path d="m432 192h16v16h-16z" data-original="#000000" class="active-path" data-old_color="#000000" fill="#18CFAB"/><path d="m392 280a8.00917 8.00917 0 0 1 -8 8h-208a8.00917 8.00917 0 0 1 -8-8v-176a8.00917 8.00917 0 0 1 8-8h48v-16h-48a24.02718 24.02718 0 0 0 -24 24v176a24.02718 24.02718 0 0 0 24 24h208a24.02718 24.02718 0 0 0 24-24v-24h-16z" data-original="#000000" class="active-path" data-old_color="#000000" fill="#18CFAB"/><path d="m184 128h40v16h-40z" data-original="#000000" class="active-path" data-old_color="#000000" fill="#18CFAB"/><circle cx="192" cy="112" r="8" data-original="#000000" class="active-path" data-old_color="#000000" fill="#18CFAB"/><circle cx="216" cy="112" r="8" data-original="#000000" class="active-path" data-old_color="#000000" fill="#18CFAB"/><path d="m88 384h208a24.02718 24.02718 0 0 0 24-24v-40h-16v40a8.00917 8.00917 0 0 1 -8 8h-208a8.00917 8.00917 0 0 1 -8-8v-176a8.00917 8.00917 0 0 1 8-8h48v-16h-48a24.02718 24.02718 0 0 0 -24 24v176a24.02718 24.02718 0 0 0 24 24z" data-original="#000000" class="active-path" data-old_color="#000000" fill="#18CFAB"/><path d="m96 208h40v16h-40z" data-original="#000000" class="active-path" data-old_color="#000000" fill="#18CFAB"/><circle cx="104" cy="192" r="8" data-original="#000000" class="active-path" data-old_color="#000000" fill="#18CFAB"/><circle cx="128" cy="192" r="8" data-original="#000000" class="active-path" data-old_color="#000000" fill="#18CFAB"/></g></g> </svg>
