<?xml version="1.0"?>
<svg xmlns="http://www.w3.org/2000/svg" id="Capa_1" enable-background="new 0 0 512 512" height="512px" viewBox="0 0 512 512" width="512px"><g><g><path d="m512 136.704v-60.002h-60.001v22.501h-391.998v-22.501h-60.001v60.002h22.501v22.499h15v-37.499h-22.501v-30.002h30.001v22.501h421.998v-22.501h30.001v30.002h-22.501v268.592h22.501v30.002h-30.001v-22.501h-421.998v22.501h-30.001v-30.002h22.501v-216.093h-15v201.093h-22.501v60.002h60.001v-22.501h391.998v22.501h60.001v-60.002h-22.501v-238.592z" data-original="#000000" class="active-path" data-old_color="#000000" fill="#18CFAB"/><path d="m368.505 129.203h-296.61l-19.394 19.394v214.808l19.394 19.393h368.211l19.394-19.393v-214.808l-19.394-19.394h-56.601v15h50.388l10.607 10.607v92.801l-61.488-35.5h-40.705l-17.978 10.38c.302-2.499.469-5.027.469-7.584 0-34.35-27.946-62.296-62.295-62.296-16.304 0-31.721 6.257-43.411 17.618-8.124 7.896-13.829 17.661-16.716 28.346l-10.56-9.223h-31.048l-93.266 76.41v-110.952l10.606-10.606h290.398v-15.001zm-180.459 238.594 105.617-52.304-19.838 52.304zm245.847 0h-144.025l22.757-59.999h14.812 117.063v22.5h-67.5v15h67.5v11.894zm-87.567-140.687h32.666l65.508 37.82v27.867h-134.238l-30.927-27.011zm-83.825-59.5c26.079 0 47.295 21.217 47.295 47.296 0 6.265-1.195 12.317-3.557 18.027l-36.755 21.22-2.089 1.206-38.24-33.396-13.697-11.963c2.437-24.032 22.478-42.39 47.043-42.39zm-96.374 36.742h20.06l13.943 12.177 65.476 57.184 21.852 19.085h-74.735v15h62.68l-121.157 59.999h-76.14l-10.606-10.605v-11.894h67.5v-15h-67.5v-22.5h130.224v-15h-130.223v-7.645z" data-original="#000000" class="active-path" data-old_color="#000000" fill="#18CFAB"/><path d="m346.501 330.298h15.498v15h-15.498z" data-original="#000000" class="active-path" data-old_color="#000000" fill="#18CFAB"/><path d="m150.001 330.298h15.497v15h-15.497z" data-original="#000000" class="active-path" data-old_color="#000000" fill="#18CFAB"/><path d="m414.002 159.203h15.497v15h-15.497z" data-original="#000000" class="active-path" data-old_color="#000000" fill="#18CFAB"/><path d="m383.505 159.203h15.497v15h-15.497z" data-original="#000000" class="active-path" data-old_color="#000000" fill="#18CFAB"/><path d="m90 159.203h15.498v15h-15.498z" data-original="#000000" class="active-path" data-old_color="#000000" fill="#18CFAB"/></g></g> </svg>
