<svg width="26" height="26" fill="none" xmlns="http://www.w3.org/2000/svg"><g clip-path="url(#clip0)" fill="#839694" fill-opacity=".5"><path d="M21.475.134H3.686A3.69 3.69 0 000 3.819v17.786a3.69 3.69 0 003.686 3.686h17.789a3.69 3.69 0 003.685-3.686V3.82A3.69 3.69 0 0021.476.134zM12.63 19.296a6.64 6.64 0 01-6.634-6.633A6.64 6.64 0 0112.63 6.03a6.64 6.64 0 016.634 6.633 6.64 6.64 0 01-6.634 6.633zM20 7.504a2.214 2.214 0 01-2.21-2.211 2.212 2.212 0 014.422-.001c0 1.22-.992 2.212-2.211 2.212z"/><path d="M20 4.557a.738.738 0 10.002 1.475A.738.738 0 0020 4.557zm-7.37 2.948a5.166 5.166 0 00-5.16 5.159 5.166 5.166 0 005.16 5.16 5.166 5.166 0 005.16-5.16 5.166 5.166 0 00-5.16-5.16z"/></g><defs><clipPath id="clip0"><path fill="#fff" d="M0 .134h25.16v25.157H0z"/></clipPath></defs></svg>