<svg width="27" height="27" fill="none" xmlns="http://www.w3.org/2000/svg"><g clip-path="url(#clip0)" fill="#839694" fill-opacity=".5"><path d="M25.92 3.38c-.32-.39-.8-.606-1.349-.606-.299 0-.615.063-.94.187L1.483 11.415C.309 11.864.15 12.537.161 12.898c.01.361.206 1.024 1.405 1.406l.021.006 3.106.889L19.82 7.471a.766.766 0 01.907 1.208l-8.41 8.936-.24.973 3.003 2.418 4.162 3.351.011.009c.458.355.958.543 1.447.543.954 0 1.714-.706 1.936-1.8l3.628-17.917c.146-.719.024-1.363-.344-1.812z"/><path d="M10.877 17.053a.764.764 0 01.185-.341l5.519-5.864-10.24 5.231 2.325 6.65c.132.38.33.702.573.954l1.637-6.63zm-.211 7.246c.553-.005 1.096-.238 1.572-.676l1.701-1.567-2.268-1.826-1.005 4.069z"/></g><defs><clipPath id="clip0"><path fill="#fff" d="M.16.781h26.163v26.163H.16z"/></clipPath></defs></svg>