<svg xmlns="http://www.w3.org/2000/svg" width="304" height="325"><defs><filter id="a" width="344" height="360" x="-20" y="-18" filterUnits="userSpaceOnUse"><feOffset in="SourceGraphic" result="FeOffset1023Out"/><feGaussianBlur in="FeOffset1023Out" result="FeGaussianBlur1024Out" stdDeviation="20 20"/></filter><mask id="b" width="2" height="2" x="-1" y="-1"><path fill="#fff" d="M40 42h224v240H40z"/><path d="M52 50H40v-8h64v8H92v224h12v8H40v-8h12zm80 0h-12v-8h64v8h-12v224h12v8h-64v-8h12zm80 0h-12v-8h64v8h-12v224h12v8h-64v-8h12z"/></mask></defs><g filter="url(#a)"><path fill="none" d="M52 50H40v-8h64v8H92v224h12v8H40v-8h12zm80 0h-12v-8h64v8h-12v224h12v8h-64v-8h12zm80 0h-12v-8h64v8h-12v224h12v8h-64v-8h12z" mask="url(&quot;#b&quot;)"/><path fill-opacity=".4" d="M52 50H40v-8h64v8H92v224h12v8H40v-8h12zm80 0h-12v-8h64v8h-12v224h12v8h-64v-8h12zm80 0h-12v-8h64v8h-12v224h12v8h-64v-8h12z"/></g><path fill="#08cd5f" d="M52 50H40v-8h64v8H92v224h12v8H40v-8h12zm80 0h-12v-8h64v8h-12v224h12v8h-64v-8h12zm80 0h-12v-8h64v8h-12v224h12v8h-64v-8h12z"/></svg>